<svg width="455" height="445" viewBox="0 0 455 445" fill="none" xmlns="http://www.w3.org/2000/svg">
<path d="M429.961 128.348C480.183 236.049 430.643 365.761 318.833 417.899C207.023 470.037 75.8135 424.609 25.5916 316.908C-24.6303 209.207 24.9098 79.4948 136.72 27.3569C248.53 -24.781 379.739 20.6466 429.961 128.348Z" fill="white" stroke="#0468BF" stroke-width="10"/>
<path d="M405.529 105.808C409.313 111.459 412.838 117.349 416.081 123.469L411.662 125.81C413.22 128.75 414.712 131.746 416.134 134.795C417.556 137.845 418.892 140.913 420.143 143.996L424.776 142.116C427.38 148.534 429.626 155.02 431.522 161.551L426.721 162.946C428.599 169.414 430.125 175.929 431.309 182.467L436.229 181.577C437.457 188.361 438.325 195.171 438.842 201.981L433.856 202.359C434.365 209.05 434.525 215.743 434.348 222.413L439.346 222.546C439.163 229.415 438.631 236.26 437.757 243.056L432.798 242.419C431.945 249.06 430.759 255.653 429.248 262.176L434.119 263.304C432.573 269.982 430.695 276.586 428.495 283.091L423.759 281.49C421.617 287.823 419.162 294.061 416.404 300.179L420.962 302.234C418.15 308.472 415.03 314.588 411.612 320.557L407.273 318.073C403.954 323.867 400.348 329.52 396.462 335.008L400.542 337.897C396.595 343.472 392.367 348.88 387.866 354.099L384.079 350.833C379.726 355.88 375.112 360.746 370.245 365.408L373.703 369.019C368.781 373.734 363.607 378.244 358.189 382.529L355.088 378.607C349.871 382.733 344.423 386.645 338.75 390.322L341.47 394.517C335.765 398.215 329.84 401.68 323.701 404.893L321.383 400.463C318.426 402.011 315.419 403.499 312.362 404.924C309.304 406.35 306.232 407.697 303.146 408.967L305.049 413.591C298.642 416.228 292.179 418.54 285.679 420.533L284.213 415.753C277.75 417.734 271.252 419.394 264.738 420.738L265.748 425.635C258.984 427.031 252.202 428.095 245.427 428.835L244.884 423.865C238.184 424.597 231.491 425.004 224.826 425.094L224.894 430.094C218.003 430.187 211.142 429.95 204.334 429.39L204.744 424.407C198.042 423.856 191.393 422.986 184.822 421.803L183.936 426.724C177.166 425.506 170.476 423.965 163.889 422.109L165.245 417.297C158.785 415.477 152.429 413.347 146.201 410.917L144.383 415.575C137.986 413.079 131.72 410.272 125.609 407.164L127.876 402.708C121.909 399.672 116.096 396.343 110.46 392.728L107.761 396.936C101.993 393.237 96.4072 389.245 91.0275 384.969L94.1384 381.055C88.9148 376.904 83.8914 372.479 79.0925 367.788L75.5978 371.364C70.7135 366.591 66.0551 361.549 61.6472 356.247L65.4919 353.051C61.2441 347.941 57.2347 342.584 53.4866 336.988L49.3321 339.77C45.5477 334.119 42.023 328.229 38.7805 322.109L43.1988 319.768C41.6408 316.828 40.1495 313.832 38.7275 310.783C37.3054 307.733 35.9693 304.665 34.7182 301.582L30.085 303.462C27.481 297.044 25.2351 290.558 23.3387 284.027L28.1404 282.632C26.2622 276.164 24.7357 269.649 23.5523 263.111L18.6322 264.001C17.4042 257.217 16.5362 250.407 16.019 243.597L21.0047 243.219C20.4966 236.528 20.3358 229.835 20.5133 223.165L15.5151 223.032C15.6979 216.163 16.2306 209.318 17.1037 202.522L22.0629 203.159C22.916 196.518 24.1024 189.925 25.6128 183.403L20.7417 182.275C22.2884 175.596 24.1663 168.992 26.3661 162.487L31.1026 164.089C33.2444 157.755 35.6988 151.517 38.4569 145.399L33.8987 143.344C36.7109 137.106 39.831 130.99 43.2496 125.021L47.5884 127.506C50.9069 121.711 54.5135 116.058 58.3994 110.57L54.3187 107.681C58.2661 102.106 62.4946 96.6979 66.9954 91.4796L70.7816 94.7452C75.1351 89.6976 79.7495 84.8317 84.6164 80.1699L81.1577 76.5591C86.0798 71.8443 91.254 67.3336 96.6717 63.049L99.7733 66.9707C104.99 62.845 110.439 58.9334 116.111 55.2565L113.391 51.0609C119.096 47.3631 125.021 43.8977 131.16 40.6848L133.479 45.1146C136.435 43.5672 139.442 42.0795 142.5 40.6538C145.557 39.2282 148.63 37.8808 151.715 36.6107L149.812 31.987C156.219 29.35 162.683 27.0383 169.182 25.0452L170.648 29.8255C177.111 27.8436 183.61 26.1841 190.123 24.8398L189.113 19.943C195.877 18.5469 202.659 17.4827 209.434 16.7427L209.977 21.7132C216.677 20.9815 223.37 20.5744 230.035 20.484L229.967 15.4845C236.858 15.391 243.719 15.6281 250.527 16.1877L250.117 21.1709C256.819 21.7218 263.468 22.5925 270.039 23.7749L270.925 18.8539C277.695 20.072 284.385 21.6131 290.972 23.4687L289.616 28.2814C296.076 30.1012 302.432 32.2307 308.661 34.6611L310.478 30.0032C316.875 32.4994 323.142 35.3059 329.252 38.414L326.985 42.8705C332.952 45.9059 338.766 49.2354 344.401 52.8504L347.101 48.6418C352.868 52.3414 358.454 56.3333 363.834 60.6088L360.723 64.5232C365.946 68.6746 370.97 73.0995 375.769 77.7896L379.263 74.2137C384.148 78.9872 388.806 84.0291 393.214 89.331L389.369 92.5275C393.617 97.6367 397.626 102.994 401.375 108.59L405.529 105.808Z" stroke="#0468BF" stroke-width="10" stroke-dasharray="20 20"/>
<path d="M187.277 193.537L236.363 170.647" stroke="#0468BF" stroke-width="20"/>
<path d="M49.6184 246.694C44.613 249.028 42.4475 254.978 44.7815 259.983C47.1156 264.989 53.0654 267.154 58.0708 264.82L49.6184 246.694ZM76.7375 256.116L85.8005 251.89L77.3482 233.764L68.2851 237.99L76.7375 256.116ZM58.0708 264.82L76.7375 256.116L68.2851 237.99L49.6184 246.694L58.0708 264.82Z" fill="#0468BF"/>
<path d="M338.156 120.726L356.823 112.022" stroke="#0468BF" stroke-width="20" stroke-linecap="round"/>
<path d="M362.703 240.779C325.709 227.924 310.196 223.872 297.863 225.904C286.931 228.482 280.71 231.172 269.257 240.779C261.146 250.688 257.303 256.845 253.619 270.53C234.939 265.295 226.303 263.777 216.24 265.19C200.354 267.388 193.176 273.133 181.15 285.405C171.501 303.179 166.183 312.816 153.688 340.71C149.964 343.849 147.031 345.558 137.287 348.338L106.393 340.71C106.393 340.71 117.383 360.381 130.04 369.697C155.812 384.539 171.395 385.987 200.602 379.996C225.985 371.935 237.471 363.143 253.619 340.71L272.308 308.671C289.347 314.522 300.327 315.556 320.366 316.681C352.607 313.982 365.008 307.182 382.918 291.126C398.257 273.994 402.771 264.085 406.948 246.119C406.913 231.575 403.133 209.885 401.226 203.401C399.319 196.917 396.389 209.962 386.351 233.151C377.497 237.98 372.381 239.947 362.703 240.779Z" fill="#3D73C3" stroke="#3D73C3"/>
<path d="M183.976 193.063C199.022 222.076 188.589 256.635 161.684 270.588C134.78 284.541 100.521 273.158 85.4749 244.145C70.4288 215.132 80.8623 180.573 107.767 166.62C134.671 152.667 168.93 164.05 183.976 193.063Z" stroke="#0468BF" stroke-width="15"/>
<path d="M313.091 206.19C297.07 213.661 282.656 215.444 269.849 211.54C257.089 207.738 246.497 198.789 238.072 184.694C236.397 181.896 234.212 177.606 231.517 171.827C228.68 165.743 226.822 161.362 225.944 158.685C220.751 143.578 220.728 129.762 225.875 117.239C231.077 104.568 241.434 94.6146 256.949 87.3802C274.896 79.0111 290.274 76.7784 303.081 80.6821C315.841 84.4844 326.125 93.7 333.934 108.329C336.028 112.29 337.596 115.386 338.636 117.617C340.764 122.18 342.294 125.726 343.226 128.254C346.224 135.744 346.797 142.266 344.943 147.822C343.191 153.33 339.222 157.526 333.037 160.41C328.677 162.443 324.702 163.186 321.113 162.637C317.525 162.089 314.524 161.081 312.111 159.613C311.711 163.256 310.514 166.777 308.519 170.177C306.578 173.427 302.921 176.305 297.547 178.811C289.942 182.358 282.655 182.484 275.688 179.19C268.774 175.748 263.024 169.109 258.438 159.273C253.852 149.437 252.462 140.765 254.269 133.256C256.177 125.7 260.933 120.149 268.538 116.603C272.29 114.853 275.663 114.145 278.657 114.477C281.706 114.66 284.639 115.391 287.457 116.669L286.251 114.084C285.778 113.07 285.704 112.117 286.029 111.224C286.408 110.184 287.104 109.427 288.118 108.954L292.225 107.039C293.239 106.566 294.216 106.543 295.155 106.969C296.148 107.246 296.882 107.892 297.354 108.906L312.461 141.303C314.4 145.461 316.751 148.253 319.515 149.68C322.279 151.107 325.132 151.134 328.072 149.763C331.621 148.108 333.44 145.655 333.529 142.404C333.719 139.106 333.085 135.76 331.626 132.367C330.694 129.838 329.329 126.648 327.533 122.795C326.729 121.071 325.28 118.228 323.186 114.267C316.505 102.322 308.298 94.9148 298.566 92.0461C288.888 89.0287 276.647 90.9717 261.842 97.875C249.573 103.596 241.403 111.357 237.331 121.156C233.313 130.807 233.337 141.844 237.402 154.268C238.28 156.945 240.019 161.072 242.62 166.649C245.078 171.922 247.146 175.958 248.821 178.756C255.475 189.85 263.892 196.912 274.07 199.943C284.201 202.873 295.553 201.406 308.126 195.543C314.717 192.47 319.882 189.382 323.621 186.281C327.508 183.234 330.131 180.653 331.491 178.537C332.951 176.375 334.527 173.665 336.218 170.408C336.373 170.212 336.664 169.644 337.09 168.705C337.563 167.867 338.307 167.211 339.321 166.738L345.405 163.901C346.318 163.476 347.22 163.426 348.112 163.75C349.105 164.028 349.839 164.673 350.311 165.687C350.69 166.499 350.717 167.35 350.392 168.242C348.092 175.487 344.051 182.309 338.27 188.708C332.638 195.162 324.245 200.989 313.091 206.19ZM293.495 167.739C298.666 165.327 301.563 161.878 302.186 157.39C302.864 152.753 301.666 147.14 298.592 140.549C295.519 133.958 291.988 129.432 288.001 126.97C284.116 124.461 279.587 124.413 274.416 126.824C269.447 129.141 266.648 132.669 266.018 137.406C265.341 142.043 266.515 147.606 269.541 154.095C272.331 160.078 275.79 164.452 279.919 167.218C284.102 169.835 288.627 170.008 293.495 167.739Z" fill="#0468BF"/>
</svg>
